<svg xmlns="http://www.w3.org/2000/svg" width="520" height="510">
  <svg xmlns="http://www.w3.org/2000/svg" xmlns:xlink="http://www.w3.org/1999/xlink" width="2000" height="510" data-background-color="#3b82f6" transform="translate(-1.21 -.77)" viewBox="0 0 396 101">
    <svg width="395.52" height="100.7" transform="translate(.24 .15)" viewBox="0 0 395.52 100.7">
      <svg width="395.52" height="100.7" viewBox="0 0 563.48 143.46">
        <svg width="395.52" height="103.8" transform="translate(167.96 19.83)" viewBox="0 0 395.52 103.8">
          <svg width="395.52" height="103.8" viewBox="0 0 395.52 103.8">
            <svg width="395.52" height="103.8" viewBox="0 0 395.52 103.8">
              <svg width="395.52" height="103.8" data-palette-color="#ffffff" viewBox="3.15 -31.7 122.48 32.15"/>
            </svg>
          </svg>
        </svg>
        <svg width="143.46" height="143.46" viewBox="0 0 143.46 143.46">
          <svg xmlns="http://www.w3.org/2000/svg" xmlns:xlink="http://www.w3.org/1999/xlink" xml:space="preserve" width="143.46" height="143.46" class="icon-icon-0" data-fill-palette-color="accent" viewBox="2.32 2.32 95.36 95.36">
            <path fill="#000" d="M50 97.68C23.7 97.68 2.32 76.3 2.32 50S23.7 2.32 50 2.32 97.68 23.7 97.68 50 76.3 97.68 50 97.68m0-88.16C27.68 9.52 9.52 27.68 9.52 50S27.68 90.48 50 90.48 90.48 72.32 90.48 50 72.32 9.52 50 9.52m32.06 24.75a10.77 10.77 0 1 1-13.84-13.84 22 22 0 0 0-7.05-1.15A22.04 22.04 0 1 0 83.2 41.32a22 22 0 0 0-1.15-7.05" data-fill-palette-color="accent"/>
          </svg>
        </svg>
      </svg>
    </svg>
  </svg>
</svg>
