<svg xmlns="http://www.w3.org/2000/svg" width="1500" height="382">
  <svg xmlns="http://www.w3.org/2000/svg" xmlns:xlink="http://www.w3.org/1999/xlink" width="1500" height="382" data-background-color="#3b82f6" transform="translate(-.91 -.576)" viewBox="0 0 396 101">
    <svg width="395.52" height="100.695" transform="translate(.24 .152)" viewBox="0 0 395.52 100.695">
      <svg width="395.52" height="100.695" viewBox="0 0 563.482 143.457">
        <svg width="395.52" height="103.804" transform="translate(167.962 19.827)" viewBox="0 0 395.52 103.804">
          <svg width="395.52" height="103.804" viewBox="0 0 395.52 103.804">
            <svg width="395.52" height="103.804" viewBox="0 0 395.52 103.804">
              <svg width="395.52" height="103.804" data-palette-color="#ffffff" viewBox="3.15 -31.7 122.48 32.15">
                <path fill="#fff" d="M6.3 0H3.15v-29.55H6.3v12.9h8.65v-12.9h3.1V0h-3.1v-14.25H6.3V0Zm23.95.45q-2.5 0-4.05-.58-1.55-.57-2.25-2.12-.7-1.55-.7-4.5V-19.1q0-3.5 1.57-4.8 1.58-1.3 5.23-1.3 3.55 0 5.12 1.3 1.58 1.3 1.58 4.8v6.4h-10.4v7q0 2.4.75 3.32.75.93 3.05.93 2.1 0 2.8-.9.7-.9.7-3.35v-3.2h3.1v2.1q0 2.9-.7 4.47-.7 1.58-2.13 2.18-1.42.6-3.67.6Zm-3.9-19.65v4.9h7.3v-4.9q0-2.1-.7-3.05-.7-.95-2.9-.95t-2.95.95q-.75.95-.75 3.05ZM44.25 0H41.2v-24.75h3.05V0Zm-1.5-27.8q-.75 0-1.28-.53-.52-.52-.52-1.22 0-.75.52-1.23.53-.47 1.28-.47.7 0 1.25.47.55.48.55 1.23 0 .7-.55 1.22-.55.53-1.25.53ZM52.64 0h-3.1v-24.75h2.6l.35 2.75q.55-1.45 1.83-2.3 1.27-.85 3.12-.85 2.9 0 4.08 1.2 1.17 1.2 1.22 3.5l-.55.05q.5-2.15 1.93-3.45 1.42-1.3 3.67-1.3 3.1 0 4.23 1.45 1.12 1.45 1.12 4.45V0h-3.1v-18.7q0-2.4-.72-3.28-.73-.87-2.48-.87-1.65 0-2.75.97-1.1.98-1.2 2.43V0h-3.1v-19.1q0-2.05-.72-2.9-.73-.85-2.58-.85-1.7 0-2.57.8-.88.8-1.28 1.9V0Zm30.9.4q-1.85 0-3.05-.48-1.2-.47-1.87-1.35-.68-.87-.93-2.2-.25-1.32-.25-3.02V-19q0-1.35.28-2.48.27-1.12.92-1.95.65-.82 1.75-1.3 1.1-.47 2.8-.47 2 0 3.13.6 1.12.6 1.62 1.45v-8.35h3.1V0h-2.15l-.3-2.35q-.3.65-.87 1.28-.58.62-1.55 1.04-.98.43-2.63.43Zm.55-1.9q1.45 0 2.25-.52.8-.53 1.13-1.38.32-.85.4-1.88.07-1.02.07-2.02v-13.55q-.15-.45-.52-1-.38-.55-1.13-.95-.75-.4-2.05-.4-1.45 0-2.2.4-.75.4-1.07 1.07-.33.68-.38 1.53-.05.85-.05 1.75v12.2q0 1.2.15 2.3.15 1.1.9 1.77.75.68 2.5.68Zm16.7 1.85q-1.15 0-2.33-.32-1.17-.33-2-1.51-.82-1.17-.82-3.67v-2.4q0-2.5 1.52-4.03 1.53-1.52 4.18-2.72 1.7-.85 2.77-1.5 1.08-.65 1.63-1.45.55-.8.55-2.15v-1.05q0-1.2-.5-1.85-.5-.65-1.33-.9-.82-.25-1.72-.25-2.25 0-2.95 1.22-.7 1.23-.7 3.63v2.1h-2.85v-2.4q0-1.85.5-3.28.5-1.42 1.9-2.25 1.4-.82 4.1-.82 2.85 0 4.27.65 1.43.65 1.9 1.85.48 1.2.48 2.85V0h-3.05l-.05-3.1q-.6 1.7-2.15 2.57-1.55.88-3.35.88Zm1.15-2.1q2.25 0 3.27-1.6 1.03-1.6 1.03-4.25v-7.9q-.5.8-1.65 1.45-1.15.65-2.35 1.3-1.7 1-2.63 2.07-.92 1.08-.92 2.98v1.95q0 1.8.5 2.65.5.85 1.25 1.1.75.25 1.5.25ZM117.29 0h-3.05v-31.7h3.05V0Zm8.34 0h-3.05v-31.7h3.05V0Z" class="wordmark-text-0" data-fill-palette-color="primary"/>
              </svg>
            </svg>
          </svg>
        </svg>
        <svg width="143.457" height="143.457" viewBox="0 0 143.457 143.457">
          <svg xmlns="http://www.w3.org/2000/svg" xmlns:xlink="http://www.w3.org/1999/xlink" xml:space="preserve" width="143.457" height="143.457" class="icon-icon-0" data-fill-palette-color="accent" viewBox="2.318 2.318 95.364 95.364">
            <path fill="#fff" d="M50 97.682C23.708 97.682 2.318 76.292 2.318 50S23.708 2.318 50 2.318 97.682 23.708 97.682 50 76.292 97.682 50 97.682m0-88.164C27.678 9.518 9.518 27.678 9.518 50S27.678 90.481 50 90.481 90.481 72.321 90.481 50 72.322 9.518 50 9.518m32.061 24.755c-1.522 4.1-5.469 7.021-10.098 7.021-5.947 0-10.768-4.821-10.768-10.768 0-4.629 2.922-8.575 7.021-10.097a22 22 0 0 0-7.047-1.151c-12.173 0-22.041 9.868-22.041 22.041S48.996 63.36 61.169 63.36 83.21 53.493 83.21 41.319a22 22 0 0 0-1.149-7.046" data-fill-palette-color="accent"/>
          </svg>
        </svg>
      </svg>
    </svg>
  </svg>
</svg>
